HIERARCHY
ROOT Pelvis
{
	OFFSET 0.000000 0.000000 0.000000
	CHANNELS 6 Xposition Yposition Zposition Xrotation Yrotation Zrotation
	JOINT LeftUpLeg_virtual
	{
		OFFSET 0.000000 0.000000 0.000000
		CHANNELS 3 Xrotation Yrotation Zrotation
		JOINT LeftUpLeg
		{
			OFFSET 18.735201 -5.666702 -4.541200
			CHANNELS 3 Xrotation Yrotation Zrotation
			JOINT LeftLeg
			{
				OFFSET -0.021200 -31.938179 0.493100
				CHANNELS 3 Xrotation Yrotation Zrotation
				JOINT LeftFoot
				{
					OFFSET 0.021200 -31.938179 -4.336299
					CHANNELS 3 Xrotation Yrotation Zrotation
					JOINT LeftToeBase
					{
						OFFSET 0.943001 -26.722000 15.023500
						CHANNELS 3 Xrotation Yrotation Zrotation
						End Site
						{
							OFFSET 0 0 0
						}
					}
				}
			}
		}
	}
	JOINT RightUpLeg_virtual
	{
		OFFSET 0.000000 0.000000 0.000000
		CHANNELS 3 Xrotation Yrotation Zrotation
		JOINT RightUpLeg
		{
			OFFSET -18.735201 -5.666702 -4.541200
			CHANNELS 3 Xrotation Yrotation Zrotation
			JOINT RightLeg
			{
				OFFSET 0.018946 -31.938133 0.493100
				CHANNELS 3 Xrotation Yrotation Zrotation
				JOINT RightFoot
				{
					OFFSET -0.018946 -31.938126 -4.336299
					CHANNELS 3 Xrotation Yrotation Zrotation
					JOINT RightToeBase
					{
						OFFSET -0.943001 -26.722004 15.023500
						CHANNELS 3 Xrotation Yrotation Zrotation
						End Site
						{
							OFFSET 0 0 0
						}
					}
				}
			}
		}
	}
	JOINT Hips_virtual
	{
		OFFSET 0.000000 0.000000 0.000000
		CHANNELS 3 Xrotation Yrotation Zrotation
		JOINT Hips
		{
			OFFSET -0.000000 -0.000000 -0.000000
			CHANNELS 3 Xrotation Yrotation Zrotation
			JOINT Spine
			{
				OFFSET 0.000000 10.199997 -0.299500
				CHANNELS 3 Xrotation Yrotation Zrotation
				JOINT Spine1
				{
					OFFSET 0.000000 11.900002 -1.516600
					CHANNELS 3 Xrotation Yrotation Zrotation
					JOINT Spine2
					{
						OFFSET 0.000000 13.600006 -2.842500
						CHANNELS 3 Xrotation Yrotation Zrotation
						JOINT Neck_virtual
						{
							OFFSET 0.000000 0.000000 0.000000
							CHANNELS 3 Xrotation Yrotation Zrotation
							JOINT Neck
							{
								OFFSET 0.000000 9.624100 -2.890100
								CHANNELS 3 Xrotation Yrotation Zrotation
								JOINT Head
								{
									OFFSET 0.000000 14.068802 -1.351900
									CHANNELS 3 Xrotation Yrotation Zrotation
									End Site
									{
										OFFSET 0 0 0
									}
								}
							}
						}
						JOINT LeftShoulder_virtual
						{
							OFFSET 0.000000 0.000000 0.000000
							CHANNELS 3 Xrotation Yrotation Zrotation
							JOINT LeftShoulder
							{
								OFFSET 15.263000 10.923401 -0.547700
								CHANNELS 3 Xrotation Yrotation Zrotation
								JOINT LeftArm
								{
									OFFSET 25.438599 -2.830597 -13.032500
									CHANNELS 3 Xrotation Yrotation Zrotation
									JOINT LeftForeArm
									{
										OFFSET 29.960503 0.000000 0.000000
										CHANNELS 3 Xrotation Yrotation Zrotation
										JOINT LeftHand
										{
											OFFSET 27.849251 0.000000 0.000000
											CHANNELS 3 Xrotation Yrotation Zrotation
											End Site
											{
												OFFSET 0 0 0
											}
										}
									}
								}
							}
						}
						JOINT RightShoulder_virtual
						{
							OFFSET 0.000000 0.000000 0.000000
							CHANNELS 3 Xrotation Yrotation Zrotation
							JOINT RightShoulder
							{
								OFFSET -15.263000 10.923401 -0.547700
								CHANNELS 3 Xrotation Yrotation Zrotation
								JOINT RightArm
								{
									OFFSET -25.438599 -2.830597 -13.032500
									CHANNELS 3 Xrotation Yrotation Zrotation
									JOINT RightForeArm
									{
										OFFSET -29.960503 0.000000 0.000000
										CHANNELS 3 Xrotation Yrotation Zrotation
										JOINT RightHand
										{
											OFFSET -27.849251 0.000000 0.000000
											CHANNELS 3 Xrotation Yrotation Zrotation
											End Site
											{
												OFFSET 0 0 0
											}
										}
									}
								}
							}
						}
					}
				}
			}
		}
	}
}
MOTION
Frames: 5
Frame Time: 0.03333333
0.016959 83.823151 2.859623 0.000000 0.000000 0.000000 -13.841544 6.819407 0.412174 -21.034278 -4.009164 14.543843 60.387765 -3.077234 0.669138 -25.726748 0.867538 -14.882123 0.000000 0.000000 0.000000 -14.184826 7.988726 0.266141 -15.368694 -9.988563 -19.167809 57.377933 2.488360 0.501059 -31.051594 -5.184607 17.181022 0.000000 0.000000 0.000000 -14.086575 7.828005 0.579250 -1.576865 0.124576 -0.342692 18.861299 0.992073 0.712937 8.475312 -0.385248 0.854177 0.000000 0.000000 0.000000 7.302751 -0.291454 0.855157 -3.196498 -0.254801 -0.280649 0.000000 0.000000 0.000000 7.343276 -0.516686 0.406601 1.900087 -11.015866 -9.362708 -13.401680 -16.696111 -58.013523 74.153021 -61.031886 78.219504 0.000000 0.000000 0.000000 7.950624 0.081426 0.517337 9.809862 -5.116149 21.911332 -15.303029 12.067943 58.350702 94.485456 68.323550 -93.653054 0.000000 0.000000 0.000000 
0.041432 83.775276 2.824203 0.000000 0.000000 0.000000 -13.988792 6.696491 0.500042 -21.349491 -3.974495 14.604555 60.610211 -3.064169 0.573847 -25.669372 0.890889 -14.798112 0.000000 0.000000 0.000000 -14.366285 7.814870 0.274720 -15.315297 -9.993476 -19.385137 57.336843 2.660815 0.566806 -30.300621 -4.986912 17.521959 0.000000 0.000000 0.000000 -14.179211 7.617707 0.593561 -1.605493 0.333571 -0.567464 19.388084 1.186389 0.741329 8.247098 -0.436899 0.788429 0.000000 0.000000 0.000000 7.179505 -0.339349 0.870744 -3.099145 -0.237022 -0.277630 0.000000 0.000000 0.000000 7.194214 -0.514418 0.346430 2.086436 -10.604853 -10.142831 -13.185248 -16.216937 -58.076033 70.683934 -61.257836 74.572101 0.000000 0.000000 0.000000 7.724665 0.079097 0.661721 9.558973 -4.717492 22.055448 -15.512034 13.029657 59.321286 92.276819 69.275713 -91.409310 0.000000 0.000000 0.000000 
0.053287 83.787735 2.895142 0.000000 0.000000 0.000000 -14.329088 6.774976 0.585250 -21.587228 -3.787865 14.633148 60.906791 -3.107626 0.388530 -25.313279 0.908298 -14.777796 0.000000 0.000000 0.000000 -14.715706 7.855503 0.286247 -15.294515 -10.045404 -19.480027 57.724538 2.617087 0.692238 -29.765978 -4.972542 17.283976 0.000000 0.000000 0.000000 -14.483515 7.521763 0.591891 -1.567323 0.277093 -0.740987 19.882460 1.329583 0.666283 7.950268 -0.433675 0.772535 0.000000 0.000000 0.000000 6.942577 -0.302135 0.945410 -2.778412 -0.247598 -0.287577 0.000000 0.000000 0.000000 6.956827 -0.439016 0.381462 2.174047 -10.693767 -10.170603 -12.688955 -15.967842 -57.712353 65.895206 -62.796657 69.727721 0.000000 0.000000 0.000000 7.392894 0.101314 0.810385 9.078263 -4.318504 21.818092 -15.696108 13.935005 58.547582 90.356019 71.497778 -89.376024 0.000000 0.000000 0.000000 
0.041237 83.916763 3.050621 0.000000 0.000000 0.000000 -14.795662 6.945364 0.683775 -21.608982 -3.514838 14.581470 61.082477 -3.161584 0.140338 -24.607631 0.928696 -14.790667 0.000000 0.000000 0.000000 -15.124175 8.024464 0.325560 -15.123376 -10.190487 -19.389258 58.084844 2.301878 0.878731 -29.685600 -5.214827 16.528390 0.000000 0.000000 0.000000 -14.948438 7.533116 0.607242 -1.416965 -0.042294 -0.626801 20.289459 1.377615 0.507889 7.614846 -0.396356 0.785676 0.000000 0.000000 0.000000 6.687907 -0.222623 0.991732 -2.239690 -0.283080 -0.300105 0.000000 0.000000 0.000000 6.639995 -0.293787 0.416479 2.114424 -11.197590 -9.441124 -11.134112 -16.271305 -55.558067 61.266025 -65.708469 64.933345 0.000000 0.000000 0.000000 6.991195 0.121098 0.873200 8.441115 -4.024067 20.767141 -14.506278 14.643792 55.268388 91.954898 74.836866 -90.501297 0.000000 0.000000 0.000000 
0.063037 84.178230 3.271429 0.000000 0.000000 0.000000 -15.251833 7.027797 0.804965 -21.292539 -3.204811 14.405093 60.935205 -3.204213 -0.101995 -23.689592 0.952705 -14.782152 0.000000 0.000000 0.000000 -15.493847 8.148663 0.421908 -14.660033 -10.388357 -19.128027 57.942421 1.837976 1.108117 -29.864476 -5.581076 15.716499 0.000000 0.000000 0.000000 -15.458678 7.564354 0.667818 -1.273301 -0.280426 -0.424023 20.527451 1.290265 0.289671 7.229860 -0.351038 0.793372 0.000000 0.000000 0.000000 6.469460 -0.135633 0.939236 -1.463925 -0.314879 -0.308734 0.000000 0.000000 0.000000 6.294496 -0.127848 0.365022 1.997210 -11.788002 -8.110955 -7.117478 -17.039449 -50.399863 58.107787 -70.056868 61.292164 0.000000 0.000000 0.000000 6.519749 0.113375 0.842976 7.713627 -3.618453 18.636675 -10.633464 15.007835 49.897377 98.141752 79.014463 -95.834371 0.000000 0.000000 0.000000 
